<svg width="150" height="100" viewBox="0 0 150 100" fill="none" xmlns="http://www.w3.org/2000/svg">
<g clip-path="url(#clip0_34_793)">
<path fill-rule="evenodd" clip-rule="evenodd" d="M0 0H150V100H0V0Z" fill="white"/>
<path d="M19.1194 58.2589V41.5186C19.1245 39.9695 19.7429 38.4855 20.8392 37.3911C21.3812 36.8418 22.0267 36.4053 22.7383 36.1068C23.4499 35.8083 24.2136 35.6537 24.9853 35.6519H41.7288C43.3466 35.6519 44.8135 36.3234 45.8757 37.3919C46.9715 38.486 47.5898 39.9693 47.5955 41.5178V58.262C47.5955 59.8807 46.9372 61.3476 45.8757 62.409H45.8703C45.3273 62.9539 44.6821 63.3863 43.9717 63.6814C43.2613 63.9765 42.4996 64.1285 41.7304 64.1288H24.9869C24.2163 64.1292 23.4532 63.9774 22.7414 63.6822C22.0297 63.3869 21.3832 62.954 20.8392 62.4082C20.294 61.8643 19.8615 61.2182 19.5665 60.5069C19.2715 59.7955 19.1198 59.0329 19.1202 58.2628L19.1194 58.2589ZM21.8236 41.5194V58.262C21.8236 59.1336 22.1784 59.9243 22.7512 60.4962C23.0443 60.7905 23.3928 61.024 23.7764 61.1832C24.1601 61.3424 24.5715 61.4242 24.9869 61.4238H41.7304C42.1456 61.4243 42.5569 61.3428 42.9406 61.1842C43.3244 61.0256 43.6731 60.7928 43.9669 60.4993L43.9645 60.497C44.2587 60.2038 44.4921 59.8553 44.6513 59.4716C44.8105 59.088 44.8923 58.6766 44.8921 58.2613V41.517C44.8892 40.6821 44.556 39.8823 43.9653 39.2922C43.673 38.9961 43.3249 38.7609 42.9412 38.6001C42.5574 38.4393 42.1456 38.3561 41.7296 38.3553H24.9853C24.5695 38.3563 24.158 38.4396 23.7746 38.6004C23.3911 38.7612 23.0433 38.9963 22.7512 39.2922C22.1597 39.8825 21.8262 40.6838 21.8236 41.5194Z" fill="black"/>
<path fill-rule="evenodd" clip-rule="evenodd" d="M40.4433 70.3277L54.0694 60.2448L57.6506 65.033L43.9856 75.1548L40.4433 70.3277ZM63.9967 39.261V39.1832V39.1054C63.9967 38.7941 64.0745 38.482 64.1912 38.1708C64.308 37.8984 64.5025 37.626 64.7749 37.4307C65.0472 37.2362 65.3982 37.1194 65.8262 37.1194C66.0596 37.1194 66.2939 37.1583 66.5266 37.2362C66.76 37.2751 66.9546 37.4307 67.1499 37.6253C67.3444 37.8198 67.4604 38.0929 67.5001 38.4034H66.9942C66.9156 38.1311 66.7989 37.9365 66.6052 37.7809C66.4106 37.6642 66.1772 37.5863 65.904 37.5863C65.8651 37.5863 65.8262 37.5863 65.7484 37.6253H65.5927C65.3982 37.6642 65.2036 37.742 65.0472 37.8976C64.8916 38.0144 64.7749 38.2089 64.697 38.4431C64.6192 38.6377 64.5803 38.9108 64.5803 39.1824C64.5803 39.4556 64.5803 39.7279 64.6581 39.9225C64.736 40.1559 64.8138 40.3116 64.9305 40.4672C65.0472 40.5839 65.1647 40.7006 65.3204 40.7396C65.4371 40.8174 65.5927 40.8563 65.7881 40.8563C66.1772 40.8563 66.4495 40.7396 66.6448 40.5442C66.8394 40.3497 66.9561 40.0773 67.0339 39.7271H67.5398C67.5398 40.0384 67.423 40.3108 67.2666 40.5442C67.1507 40.7785 66.9164 40.9722 66.683 41.0897C66.4495 41.2454 66.1772 41.3232 65.8651 41.3232C65.5149 41.3232 65.2426 41.2843 65.0472 41.1676C64.8138 41.0508 64.6192 40.8952 64.4636 40.7396C64.3079 40.545 64.2301 40.3116 64.1515 40.0773C64.0737 39.8065 63.9967 39.5334 63.9967 39.261ZM71.1988 40.7403V41.2072H68.2401V37.198H71.1599V37.7039H68.7849V38.9108H71.0042V39.4174H68.7849V40.7403H71.1988ZM73.573 37.198H73.8843C74.1178 37.198 74.3131 37.2369 74.5076 37.3529C74.7022 37.4307 74.8578 37.5482 74.9745 37.7039C75.0913 37.8984 75.1302 38.0929 75.1302 38.3264C75.1302 38.7552 74.9745 39.0665 74.5854 39.261C74.7411 39.2999 74.8578 39.3777 74.9356 39.4945C75.0135 39.6112 75.0524 39.7279 75.0524 39.8836C75.0913 40.0392 75.0913 40.2337 75.0913 40.4672C75.0913 40.6617 75.0913 40.8174 75.1302 40.9341C75.1699 41.0127 75.2088 41.0905 75.2858 41.1294V41.2072H74.6244C74.5854 41.0905 74.5855 40.8571 74.5465 40.5847V40.0011C74.5076 39.8843 74.4687 39.7676 74.3909 39.6509C74.2742 39.5723 74.1185 39.4952 73.8851 39.4952H73.5738V39.0275H73.8851C74.0407 39.0275 74.1582 38.9886 74.2742 38.9497C74.3909 38.8719 74.4687 38.7941 74.5076 38.6766C74.5465 38.5988 74.5854 38.482 74.5854 38.3653C74.5854 38.1708 74.5465 38.0143 74.4298 37.8587C74.352 37.7428 74.1574 37.6642 73.9232 37.6642H73.573V37.198ZM71.977 41.2072V37.198H73.573V37.6642L72.5217 37.6649V39.0275H73.5738V39.4952H72.5217V41.208L71.977 41.2072ZM75.4811 37.7039V37.198H78.7511V37.7039H77.3893V41.2072H76.8437V37.7039H75.4811ZM79.8802 37.198V41.2072H79.3347V37.198H79.8802ZM81.3596 39.4174V41.2072H80.853V37.198H83.6179V37.7039H81.3596V38.9108H83.3455V39.4174H81.3596ZM84.8248 37.198V41.2072H84.2793V37.198H84.8248ZM85.5252 39.261V39.1832V39.1054C85.5252 38.7941 85.603 38.482 85.7197 38.1708C85.8365 37.8984 86.031 37.626 86.3034 37.4307C86.6147 37.2362 86.9267 37.1194 87.3555 37.1194C87.5897 37.1194 87.8224 37.1583 88.0559 37.2362C88.2901 37.2751 88.5228 37.4307 88.6792 37.6253C88.8737 37.8198 88.9904 38.0929 89.0683 38.4034H88.5228C88.4846 38.1311 88.3282 37.9365 88.1337 37.7809C87.9225 37.6531 87.6802 37.5858 87.4333 37.5863C87.3952 37.5863 87.3555 37.5863 87.2784 37.6253H87.122C86.9275 37.6642 86.7329 37.742 86.5781 37.8976C86.4217 38.0144 86.3042 38.2089 86.2271 38.4431C86.1493 38.6377 86.1104 38.9108 86.1104 39.1824C86.1104 39.4556 86.1501 39.7279 86.1898 39.9225C86.2676 40.1559 86.3446 40.3116 86.4621 40.4672C86.5788 40.5839 86.6948 40.7006 86.8512 40.7396C87.0061 40.8174 87.1625 40.8563 87.3181 40.8563H87.3578C87.7072 40.8563 87.9811 40.7396 88.1757 40.5442C88.3702 40.3497 88.5251 40.0773 88.5648 39.7271H89.1103C89.0706 40.0384 88.9936 40.3108 88.8364 40.5442C88.6815 40.7785 88.487 40.9722 88.213 41.0897C87.9804 41.2454 87.7072 41.3232 87.3967 41.3232C87.0855 41.3232 86.8115 41.2843 86.5789 41.1676C86.3622 41.0571 86.1646 40.9126 85.9937 40.7396C85.8674 40.5303 85.7636 40.3083 85.6839 40.0773C85.603 39.8065 85.5649 39.5334 85.5252 39.261ZM91.1702 37.198H91.5211L92.9608 41.2072H92.3771L91.988 40.0392H91.1702V39.5715H91.7935L91.1702 37.8198V37.8587V37.198ZM89.4177 41.2072L90.8978 37.198H91.1702V37.8587L90.5468 39.5723L91.1702 39.5715V40.0392L90.3523 40.04L89.9632 41.208L89.4177 41.2072ZM95.142 37.198H95.1801C95.4144 37.198 95.686 37.2759 95.9202 37.4307C96.1544 37.5482 96.349 37.7817 96.5038 38.054C96.6984 38.3264 96.7778 38.6766 96.7778 39.0657C96.7778 39.4166 96.7381 39.7668 96.6213 40.0781C96.5198 40.3961 96.3314 40.6794 96.0774 40.896C95.8432 41.0905 95.5319 41.2072 95.1809 41.2072H95.1428V40.7403C95.3755 40.7403 95.57 40.6625 95.7661 40.5069C95.921 40.3512 96.0385 40.1567 96.1155 39.9232C96.1933 39.6501 96.2322 39.3777 96.2322 39.1054C96.2322 38.9108 96.2323 38.7552 96.1544 38.5606C96.1147 38.4042 96.0766 38.2486 95.9599 38.1326C95.8851 37.98 95.7616 37.8565 95.6089 37.7817L95.142 37.6649V37.198ZM93.4666 37.198H95.142V37.6649H94.0113V40.7411H95.1405V41.208H93.4658L93.4666 37.198ZM100.631 39.2221C100.631 38.9108 100.552 38.6385 100.435 38.3653C100.319 38.1319 100.163 37.9373 99.9683 37.8198C99.7738 37.6642 99.5014 37.5863 99.2283 37.5863V37.1187C99.5792 37.1187 99.8913 37.1973 100.123 37.3132C100.397 37.4292 100.592 37.6245 100.747 37.819C100.903 38.0136 100.981 38.247 101.058 38.4813C101.136 38.7544 101.175 38.9871 101.175 39.2213C101.175 39.4555 101.135 39.6882 101.058 39.9225C100.98 40.1948 100.903 40.3894 100.747 40.6228C100.592 40.8174 100.397 41.0119 100.123 41.1294C99.8437 41.2618 99.5375 41.3284 99.2283 41.324V40.8571C99.5022 40.8571 99.7341 40.7792 99.9683 40.6228C100.163 40.5061 100.318 40.3116 100.435 40.0392C100.553 39.8065 100.631 39.5334 100.631 39.2221ZM99.229 37.5871C98.9567 37.5871 98.6851 37.6649 98.4905 37.8206C98.2563 37.9373 98.0999 38.1326 97.9847 38.3661C97.9053 38.6385 97.8283 38.9116 97.8283 39.2229C97.8283 39.5342 97.9061 39.8065 97.9847 40.04C98.0999 40.3131 98.2571 40.5077 98.4905 40.6236C98.6851 40.78 98.9575 40.8578 99.229 40.8578V41.3248C98.8796 41.3248 98.5676 41.2469 98.3341 41.1302C98.0618 41.0135 97.8672 40.8189 97.7108 40.6236C97.5559 40.3902 97.4384 40.1567 97.3614 39.9232C97.3217 39.689 97.282 39.4555 97.282 39.2221C97.282 38.9886 97.3217 38.7552 97.3614 38.482C97.4392 38.2486 97.5559 38.0144 97.7108 37.8198C97.8672 37.6253 98.0618 37.4307 98.3341 37.314C98.5684 37.1973 98.8796 37.1194 99.229 37.1194V37.5871ZM106.003 40.468V37.198H106.509V41.2072H105.925L103.862 37.9762V41.2072H103.357V37.198H103.978L106.003 40.468ZM107.444 41.2072V40.6236H108.027V41.2072H107.444ZM111.531 37.3148C111.882 37.3148 112.116 37.3926 112.348 37.5482C112.543 37.7428 112.699 37.9373 112.777 38.2097C112.855 38.4439 112.894 38.7163 112.894 38.9886C112.894 39.3777 112.854 39.7287 112.777 40.04C112.738 40.3131 112.622 40.5855 112.505 40.7411C112.388 40.9357 112.233 41.0524 112.076 41.1691C111.92 41.2469 111.765 41.2858 111.609 41.3248H111.53V40.8967C111.686 40.8967 111.804 40.8578 111.881 40.78C112.036 40.6633 112.115 40.5069 112.232 40.2734C112.31 40.0789 112.387 39.8065 112.387 39.4563C112.27 39.612 112.152 39.7287 111.958 39.8065C111.841 39.8454 111.685 39.8843 111.529 39.9232V39.4556C111.685 39.4556 111.84 39.4166 111.958 39.3777C112.075 39.2999 112.152 39.1832 112.232 39.0665C112.31 38.9497 112.31 38.7941 112.31 38.5995V38.4439C112.27 38.2097 112.193 38.0151 112.036 37.8984C111.919 37.7817 111.724 37.7428 111.53 37.7428V37.3148H111.531ZM110.247 38.7163C110.247 38.5217 110.286 38.3272 110.324 38.1708C110.404 38.0151 110.441 37.8595 110.559 37.7428C110.675 37.5871 110.793 37.5093 110.948 37.4307C111.104 37.3529 111.259 37.3148 111.493 37.3148H111.531L111.531 37.7428C111.299 37.7428 111.104 37.8206 110.987 37.9762C110.831 38.1326 110.793 38.3264 110.793 38.5606C110.793 39.1443 111.026 39.4556 111.493 39.4945L111.531 39.4556V39.9232H111.454C111.259 39.9232 111.064 39.8843 110.87 39.7676C110.714 39.689 110.559 39.5334 110.441 39.3396C110.313 39.157 110.245 38.9392 110.247 38.7163ZM111.531 41.3248H111.453C111.258 41.3248 111.064 41.2858 110.909 41.208C110.713 41.1302 110.598 41.0135 110.48 40.8578C110.363 40.7022 110.324 40.5069 110.324 40.2734H110.792C110.83 40.7022 111.064 40.8968 111.454 40.9349C111.493 40.9349 111.531 40.9349 111.531 40.8967L111.531 41.3248ZM114.335 38.2875L115.036 37.3148H115.463V39.8446H116.048V40.2726H115.463V41.2072H114.996V40.2726H114.334V39.8446H114.996V38.054L114.334 38.949V38.2875H114.335ZM113.243 39.7676L114.334 38.2875V38.9505L113.711 39.8454L114.334 39.8446V40.2726L113.243 40.2734V39.7676ZM119.397 37.1194L118.033 41.3248H117.681L119.045 37.1194H119.397ZM121.109 39.261V39.1832C121.07 39.1443 121.07 39.1443 121.07 39.1054C121.07 38.7941 121.147 38.482 121.264 38.1708C121.381 37.8984 121.614 37.626 121.887 37.4307C122.16 37.2362 122.511 37.1194 122.9 37.1194C123.134 37.1194 123.367 37.1583 123.6 37.2362C123.835 37.2751 124.067 37.4307 124.262 37.6253C124.418 37.8198 124.536 38.0929 124.613 38.4034H124.067C124.029 38.1311 123.873 37.9365 123.678 37.7809C123.467 37.6531 123.225 37.5858 122.978 37.5863C122.978 37.5863 122.9 37.5863 122.861 37.6253H122.706C122.472 37.6642 122.317 37.742 122.161 37.8976C122.006 38.0144 121.888 38.2089 121.772 38.4431C121.694 38.6377 121.655 38.9108 121.655 39.1824C121.655 39.4556 121.695 39.7279 121.772 39.9225C121.811 40.1559 121.926 40.3116 122.044 40.4672C122.122 40.5839 122.278 40.7006 122.395 40.7396C122.55 40.8174 122.706 40.8563 122.862 40.8563H122.901C123.251 40.8563 123.525 40.7396 123.719 40.5442C123.952 40.3497 124.069 40.0773 124.108 39.7271H124.652C124.614 40.0384 124.537 40.3108 124.38 40.5442C124.225 40.7785 124.031 40.9722 123.796 41.0897C123.524 41.2454 123.251 41.3232 122.939 41.3232C122.627 41.3232 122.355 41.2843 122.121 41.1676C121.888 41.0508 121.694 40.8952 121.577 40.7396C121.421 40.545 121.305 40.3116 121.226 40.0773C121.149 39.8121 121.109 39.5373 121.109 39.261ZM128.311 40.7403V41.2072H125.351V37.198H128.272V37.7039H125.897V38.9108H128.078V39.4174H125.897V40.7403H128.311ZM130.529 39.0665H130.686C131.23 39.0665 131.502 38.833 131.502 38.3264C131.502 37.8984 131.23 37.6642 130.686 37.6642H130.529V37.1973H130.88C131.113 37.1973 131.307 37.2751 131.502 37.3521C131.658 37.4688 131.813 37.5863 131.893 37.7809C132.009 37.9365 132.047 38.1319 132.047 38.3256C132.047 38.5599 132.009 38.7147 131.931 38.91C131.853 39.1046 131.698 39.2213 131.542 39.338C131.347 39.4548 131.153 39.5326 130.88 39.5326H130.529V39.0665ZM129.595 37.6649V39.0665H130.529V39.5326L129.595 39.5334V41.2072H129.051V37.198L130.529 37.1973V37.6642L129.595 37.6649ZM132.087 41.2072V40.6236H132.671V41.2072H132.087ZM135.902 38.2875L136.602 37.3148H136.991V39.8446H137.575V40.2726H136.991V41.2072H136.524V40.2726H135.901V39.8446H136.524V38.054L135.901 38.949L135.902 38.2875ZM134.812 39.7676L135.902 38.2875V38.9505L135.239 39.8454H135.902V40.2734H134.812V39.7676ZM139.366 37.3148H139.446C139.64 37.3148 139.795 37.3529 139.99 37.4307C140.146 37.5093 140.301 37.6253 140.418 37.7817C140.498 37.9373 140.575 38.1326 140.575 38.3264H140.106C140.077 38.1623 139.996 38.012 139.874 37.8984C139.757 37.7817 139.6 37.7428 139.405 37.7428H139.366V37.3148H139.366ZM139.366 38.7163H139.446C139.64 38.7163 139.874 38.7941 140.069 38.9108C140.264 38.9886 140.38 39.1443 140.498 39.3388C140.613 39.5334 140.653 39.7668 140.653 40.0003C140.653 40.1948 140.613 40.4283 140.498 40.6228C140.418 40.8571 140.264 41.0119 140.069 41.1294C139.874 41.2462 139.68 41.324 139.446 41.324H139.366V40.896H139.406C139.601 40.896 139.757 40.8182 139.912 40.6625C140.068 40.5069 140.146 40.3123 140.146 40.0392C140.146 39.7279 140.068 39.5334 139.912 39.3777C139.757 39.2221 139.601 39.1443 139.366 39.1443V38.7163ZM137.965 39.4174C138.004 39.1832 138.005 38.9497 138.044 38.7552C138.082 38.5606 138.122 38.3661 138.199 38.1326C138.316 37.8984 138.473 37.7435 138.668 37.549C138.822 37.4315 139.057 37.3529 139.366 37.3148V37.7435C139.211 37.7435 139.094 37.8214 138.977 37.8992C138.822 38.0159 138.705 38.1715 138.628 38.405C138.55 38.5995 138.511 38.9116 138.473 39.2229C138.588 39.0672 138.706 38.9505 138.862 38.8727C138.977 38.756 139.172 38.7163 139.366 38.7163V39.1443C139.172 39.1443 139.057 39.184 138.939 39.2618C138.822 39.3404 138.705 39.4563 138.667 39.5731C138.587 39.7295 138.55 39.8851 138.55 40.0797C138.55 40.2353 138.588 40.3909 138.667 40.5077C138.782 40.6244 138.861 40.7411 139.016 40.7808C139.094 40.8586 139.211 40.8586 139.366 40.8975V41.3255C139.171 41.3255 138.976 41.2866 138.822 41.2088C138.667 41.131 138.51 41.0143 138.355 40.8586C138.238 40.703 138.16 40.5466 138.081 40.3131C138.003 40.1186 137.964 39.8454 137.964 39.5731V39.4952L137.965 39.4174ZM143.611 38.3264C143.611 38.482 143.572 38.6377 143.532 38.7155C143.494 38.8322 143.417 38.91 143.337 38.9879C143.299 39.0268 143.221 39.0657 143.105 39.1435C143.337 39.2213 143.494 39.377 143.611 39.5326C143.688 39.7271 143.765 39.8836 143.765 40.0781C143.765 40.2726 143.726 40.4283 143.649 40.5839C143.572 40.7396 143.494 40.8571 143.376 40.973C143.26 41.0897 143.104 41.1676 142.948 41.2462C142.793 41.324 142.598 41.324 142.442 41.324H142.404V40.896H142.442C142.948 40.896 143.22 40.6228 143.22 40.1559C143.22 39.8836 143.142 39.6882 142.987 39.5715C142.819 39.4447 142.614 39.3763 142.404 39.377V38.949C142.598 38.949 142.793 38.91 142.908 38.7933C143.025 38.6377 143.104 38.5209 143.104 38.3256C143.104 38.17 143.025 38.0533 142.908 37.9365C142.83 37.8198 142.635 37.742 142.404 37.742V37.314C142.676 37.314 142.908 37.3521 143.065 37.4696C143.26 37.5482 143.416 37.6642 143.494 37.8198C143.572 37.9754 143.611 38.1326 143.611 38.3264ZM142.404 41.3248C142.248 41.3248 142.093 41.3248 141.936 41.2469C141.781 41.208 141.625 41.1302 141.469 41.0135C141.313 40.8967 141.197 40.7411 141.158 40.5855C141.119 40.4298 141.08 40.2742 141.08 40.0797C141.08 39.6517 141.313 39.3404 141.741 39.1451C141.392 38.9894 141.197 38.756 141.197 38.3669C141.197 38.2105 141.236 38.0556 141.313 37.8992C141.392 37.7435 141.507 37.5879 141.702 37.4712C141.858 37.3544 142.092 37.3155 142.404 37.3155V37.7435H142.364C142.13 37.7435 141.975 37.8214 141.858 37.9381C141.78 38.0548 141.702 38.2105 141.702 38.3661C141.702 38.5217 141.781 38.6774 141.936 38.7941C142.053 38.9108 142.21 38.9497 142.404 38.9497V39.3777C142.248 39.3777 142.093 39.4166 141.976 39.4945C141.859 39.5334 141.741 39.6501 141.702 39.7676C141.624 39.8454 141.586 39.9621 141.586 40.1178C141.586 40.2337 141.625 40.3512 141.664 40.468C141.742 40.5847 141.819 40.6625 141.937 40.7792C142.053 40.8571 142.211 40.896 142.405 40.896V41.3248H142.404ZM67.1888 47.281V47.7479H64.2301V43.7768H67.1499V44.2445H64.7749V45.4896H66.9553V45.9573H64.7749V47.281H67.1888ZM71.7046 47.7479H71.1988V44.4001L70.0696 47.7479H69.5249L68.3958 44.4001V47.7479H67.8899V43.7768H68.6681L69.7973 47.1643L70.9264 43.7768H71.7046V47.7479ZM73.145 43.7768V47.7479H72.6003V43.7768H73.145ZM73.7294 44.2445V43.7768H76.9605V44.2445H75.5979V47.7479H75.0913V44.2445H73.7294ZM78.0896 43.7768V47.7479H77.5441V43.7768H78.0896ZM80.6981 43.7768C80.9705 43.7768 81.2039 43.8157 81.4763 43.9714C81.7105 44.127 81.9051 44.3215 82.0599 44.5939C82.2163 44.8663 82.3338 45.2172 82.3338 45.6063C82.3338 45.9954 82.2942 46.3067 82.1774 46.6577C82.0607 46.9689 81.8662 47.2413 81.6335 47.4366C81.3596 47.6701 81.088 47.7479 80.7386 47.7479H80.6989V47.3199C80.9331 47.3199 81.1277 47.2421 81.2825 47.0864C81.4771 46.9308 81.5938 46.6973 81.6716 46.4639C81.751 46.1915 81.7883 45.9581 81.7883 45.6849C81.7883 45.4904 81.7502 45.2958 81.7105 45.1402C81.6708 44.9457 81.5938 44.79 81.516 44.6733C81.4366 44.5169 81.3214 44.4398 81.165 44.362C81.0102 44.2842 80.8537 44.2453 80.6981 44.2453V43.7768ZM79.025 43.7768H80.6981V44.2453L79.5682 44.2445V47.3199H80.6973V47.7479H79.0242L79.025 43.7768ZM86.1485 45.7627C86.1485 45.4515 86.1088 45.1791 85.9921 44.9449C85.8769 44.6725 85.7197 44.4772 85.5252 44.3612C85.291 44.2056 85.0583 44.1667 84.7851 44.1667V43.6609C85.1361 43.6609 85.4482 43.7387 85.6816 43.8554C85.954 44.011 86.1485 44.1659 86.3034 44.3612C86.4201 44.5947 86.5376 44.8289 86.6146 45.0624C86.6925 45.2958 86.7314 45.5293 86.7314 45.7627C86.7314 45.9962 86.6917 46.2297 86.6146 46.502C86.5368 46.7355 86.4201 46.9697 86.3034 47.1643C86.1485 47.3977 85.9143 47.5534 85.6816 47.6701C85.4474 47.8257 85.1361 47.8646 84.7851 47.8646V47.3977C85.0591 47.3977 85.291 47.3199 85.5252 47.2032C85.7197 47.0475 85.8762 46.853 85.9921 46.6195C86.1088 46.3853 86.1485 46.074 86.1485 45.7627ZM84.7851 44.1667C84.4754 44.1667 84.2412 44.2056 84.0466 44.3605C83.8124 44.4772 83.656 44.6717 83.5408 44.9441C83.4241 45.1776 83.3844 45.4499 83.3844 45.762C83.3844 46.074 83.4241 46.3456 83.5408 46.6188C83.656 46.8522 83.8132 47.0468 84.0466 47.2024C84.2412 47.3191 84.4754 47.3977 84.7851 47.3977V47.8646C84.4357 47.8646 84.1237 47.8249 83.8521 47.6693C83.6151 47.5564 83.4129 47.3817 83.2669 47.1635C83.1127 46.9648 82.9944 46.7407 82.9175 46.5012C82.8778 46.2289 82.8397 45.9954 82.8397 45.762C82.8397 45.5285 82.8778 45.2943 82.9175 45.0616C82.9953 44.8281 83.112 44.5939 83.2669 44.3605C83.4233 44.1659 83.6179 44.0103 83.8521 43.8546C84.1245 43.7379 84.4357 43.6609 84.7851 43.6609V44.1667ZM90.4301 45.6071H90.5468C91.0923 45.6071 91.3647 45.3737 91.3647 44.9067C91.3647 44.4391 91.0923 44.2445 90.5865 44.2445H90.4301V43.7768H90.7414C90.9756 43.7768 91.2098 43.8157 91.3647 43.8935C91.5592 44.0103 91.676 44.127 91.7935 44.3215C91.8713 44.4772 91.9483 44.6725 91.9483 44.906C91.9483 45.1005 91.8705 45.2951 91.7935 45.4507C91.7157 45.6452 91.5989 45.8009 91.4044 45.9176C91.248 46.0343 91.0153 46.074 90.7414 46.074H90.4301V45.6071ZM89.497 44.2445V45.6071H90.4301V46.074H89.497V47.7479H88.9515V43.7768H90.4301V44.2445H89.497ZM95.6081 47.281V47.7479H92.6884V43.7768H95.5685V44.2445H93.195V45.4896H95.4136V45.9573H93.195V47.281H95.6081ZM96.8548 43.7768V47.281H98.8789V47.7479H96.3482V43.7768H96.8548ZM102.577 45.7627C102.577 45.4515 102.499 45.1791 102.382 44.9449C102.266 44.6725 102.11 44.4772 101.915 44.3612C101.681 44.2056 101.447 44.1667 101.175 44.1667V43.6609C101.525 43.6609 101.837 43.7387 102.07 43.8554C102.344 44.011 102.539 44.1659 102.694 44.3612C102.848 44.5947 102.928 44.8289 103.005 45.0624C103.083 45.2958 103.122 45.5293 103.122 45.7627C103.122 45.9962 103.082 46.2297 103.005 46.502C102.927 46.7355 102.848 46.9697 102.694 47.1643C102.539 47.3977 102.344 47.5534 102.07 47.6701C101.836 47.8257 101.525 47.8646 101.175 47.8646V47.3977C101.448 47.3977 101.681 47.3199 101.915 47.2032C102.11 47.0475 102.265 46.853 102.382 46.6195C102.5 46.3861 102.577 46.074 102.577 45.7627ZM101.175 44.1667C100.903 44.1667 100.631 44.2056 100.435 44.3605C100.203 44.4772 100.046 44.6717 99.9294 44.9441C99.8516 45.1776 99.7746 45.4499 99.7746 45.762C99.7746 46.074 99.8524 46.3456 99.9294 46.6188C100.046 46.8522 100.203 47.0468 100.435 47.2024C100.631 47.3191 100.904 47.3977 101.175 47.3977V47.8646C100.824 47.8646 100.512 47.8249 100.241 47.6693C100.004 47.5564 99.8025 47.3816 99.657 47.1635C99.503 46.9645 99.3842 46.7405 99.3061 46.5012C99.268 46.2289 99.2283 45.9954 99.2283 45.762C99.2283 45.5285 99.268 45.2943 99.3061 45.0616C99.3855 44.8281 99.5022 44.5939 99.657 44.3605C99.8135 44.1659 100.006 44.0103 100.241 43.8546C100.513 43.7379 100.824 43.6609 101.175 43.6609V44.1667ZM66.8386 66.7847V63.5536H67.3444V67.5636H66.7608L64.697 64.3326V67.5636H64.1912V63.5536H64.8138L66.8386 66.7847ZM69.7195 65.4221H69.8751C70.4198 65.4221 70.693 65.1886 70.693 64.6828C70.693 64.2548 70.4198 64.0205 69.8751 64.0205H69.7195V63.5529H70.0696C70.3031 63.5529 70.4976 63.6315 70.6922 63.7085C70.8478 63.8252 71.0035 63.9427 71.0813 64.0984C71.1972 64.2921 71.2369 64.4875 71.2369 64.682C71.2369 64.8765 71.198 65.0711 71.1202 65.2656C71.0424 65.461 70.8867 65.5769 70.7311 65.6944C70.5366 65.8104 70.342 65.889 70.0689 65.889H69.7187L69.7195 65.4221ZM68.7849 64.0213V65.4228L69.7195 65.4221V65.8905H68.7849V67.5644H68.2393V63.5544H69.7187V64.0221L68.7849 64.0213ZM76.3768 67.0967V67.5636H73.4182V63.5536H76.3379V64.0595H73.9629V65.2664H76.1434V65.7341H73.9629V67.0967H76.3768ZM79.7238 66.7847V63.5536H80.2312V67.5636H79.646L77.5838 64.3326V67.5636H77.078V63.5536H77.7005L79.7238 66.7847ZM83.2669 63.5536V67.5636H82.7229V63.5536H83.2669ZM87.0831 64.7217H86.6146C86.5765 64.5271 86.5368 64.3715 86.4201 64.2548C86.3379 64.1349 86.2129 64.051 86.0707 64.0205C85.9143 63.9427 85.7594 63.9427 85.6022 63.9427C85.3696 63.9427 85.1353 63.9816 84.9789 64.0587C84.7844 64.1754 84.6692 64.3699 84.6692 64.6431C84.6692 64.8765 84.8637 65.0711 85.175 65.11C85.6808 65.2656 86.0699 65.3442 86.3026 65.3831C86.8878 65.5388 87.1975 65.889 87.1975 66.4734C87.1975 66.7458 87.1197 66.9784 86.9648 67.173C86.8084 67.3683 86.6139 67.4843 86.3796 67.5629C86.147 67.6407 85.9127 67.6796 85.6411 67.6796C85.1353 67.6796 84.7462 67.5628 84.4739 67.3294C84.1626 67.0952 84.0451 66.745 84.0451 66.2773H84.5509C84.5509 66.5115 84.589 66.6672 84.7058 66.8228C84.7836 66.9776 84.94 67.0562 85.0949 67.1333C85.2894 67.1722 85.4458 67.2119 85.6404 67.2119C85.7952 67.2119 85.9516 67.2119 86.1073 67.1722C86.2637 67.1333 86.4185 67.0562 86.4964 66.9387C86.6131 66.8609 86.6909 66.7053 86.6909 66.5496C86.6909 66.394 86.6528 66.2765 86.6131 66.1995C86.5353 66.1209 86.4582 66.0438 86.3407 66.0049C86.224 65.9263 86.0684 65.8882 85.8349 65.8493C85.6404 65.7707 85.4061 65.7326 85.2513 65.6936C85.0567 65.6547 84.8622 65.6158 84.7058 65.538C84.5509 65.4602 84.4334 65.3435 84.3167 65.2267C84.1999 65.0711 84.1618 64.9155 84.1618 64.682C84.1618 64.4875 84.1999 64.2921 84.3167 64.0984C84.3945 63.903 84.5509 63.7482 84.7836 63.6307C84.9781 63.5139 85.2124 63.4743 85.5236 63.4743C85.9524 63.4743 86.3018 63.5529 86.4964 63.6696C86.7306 63.8252 86.887 63.9809 86.9648 64.1754C87.0434 64.3326 87.0831 64.5271 87.0831 64.7217ZM91.0153 65.5785C91.0153 65.2672 90.9756 64.9559 90.8589 64.7217C90.7421 64.4882 90.5865 64.2929 90.392 64.1381C90.1577 64.0213 89.9235 63.9435 89.6519 63.9435V63.475C90.0029 63.475 90.3149 63.5147 90.5468 63.6704C90.8207 63.7871 91.0153 63.9435 91.1702 64.1762C91.2869 64.3707 91.4044 64.605 91.4814 64.8384C91.5592 65.1108 91.5982 65.3442 91.5982 65.5777C91.5982 65.8111 91.5585 66.0454 91.4814 66.2781C91.4036 66.5123 91.2869 66.7458 91.1702 66.9784C91.0153 67.173 90.8207 67.3683 90.5468 67.4842C90.2674 67.6169 89.9612 67.6837 89.6519 67.6796V67.2119C89.9243 67.2119 90.1577 67.1333 90.392 66.9776C90.5865 66.8617 90.7414 66.6672 90.8589 66.394C90.9756 66.1629 91.0153 65.8897 91.0153 65.5785ZM89.6519 63.9435C89.3406 63.9435 89.108 64.0213 88.9134 64.1381C88.6945 64.283 88.5191 64.4847 88.406 64.7217C88.2909 64.9559 88.2512 65.2664 88.2512 65.5785C88.2512 65.8905 88.2909 66.1629 88.406 66.3963C88.5228 66.6695 88.68 66.864 88.9134 66.98C89.108 67.1356 89.3406 67.2142 89.6519 67.2142V67.6819C89.3025 67.6819 88.9905 67.6033 88.7173 67.4866C88.4846 67.3706 88.2901 67.1753 88.1337 66.9808C87.9788 66.7473 87.8613 66.5139 87.7843 66.2804C87.7446 66.0469 87.7049 65.8127 87.7049 65.58C87.7049 65.3474 87.7446 65.1123 87.7843 64.8408C87.8621 64.6073 87.9788 64.3731 88.1337 64.1785C88.2901 63.984 88.4846 63.7894 88.7173 63.6727C88.9912 63.5171 89.3025 63.4774 89.6519 63.4774V63.9435ZM94.8696 63.6704C95.1794 63.6704 95.4533 63.749 95.6478 63.9038C95.8424 64.0991 95.9972 64.2929 96.0766 64.5661C96.1544 64.8003 96.1918 65.0719 96.1918 65.345C96.1918 65.7341 96.1537 66.0843 96.114 66.3963C96.0361 66.6695 95.9194 66.9022 95.8027 67.0967C95.686 67.2913 95.5685 67.408 95.4136 67.5255C95.2587 67.6033 95.1023 67.6414 94.9078 67.6811H94.8696V67.2523C94.9848 67.2523 95.1023 67.2134 95.219 67.1356C95.3358 67.0197 95.4533 66.8633 95.5303 66.6298C95.6081 66.4353 95.6852 66.1629 95.7249 65.8119C95.6111 65.9606 95.4643 66.0808 95.2961 66.1629C95.1412 66.2018 94.9848 66.2407 94.8689 66.2788V65.8112C95.0237 65.8112 95.1412 65.7722 95.258 65.7333C95.3731 65.6555 95.4906 65.5388 95.5303 65.4221C95.6081 65.3053 95.6471 65.1497 95.6471 64.9551C95.6471 64.9551 95.6471 64.8765 95.6074 64.7995C95.6074 64.5653 95.4906 64.3707 95.3731 64.2548C95.2183 64.1381 95.0634 64.0991 94.8689 64.0991L94.8696 63.6704ZM93.5841 65.0719C93.5841 64.8773 93.5841 64.6828 93.6619 64.5271C93.7016 64.3715 93.7786 64.2159 93.8564 64.0595C93.9732 63.9435 94.0907 63.8649 94.2471 63.7871C94.402 63.7085 94.5965 63.6704 94.7911 63.6704H94.8696L94.8704 64.0991C94.6362 64.0991 94.4416 64.177 94.2852 64.3326C94.1685 64.4882 94.0907 64.6828 94.0907 64.9162C94.0907 65.5007 94.3249 65.8111 94.8307 65.8508V65.8112H94.8704V66.2788H94.7537C94.5576 66.2788 94.363 66.201 94.1685 66.1232C94.0136 66.0073 93.8572 65.8897 93.7413 65.6952C93.623 65.5396 93.5841 65.3053 93.5841 65.0719ZM94.8696 67.6811H94.7903C94.556 67.6811 94.4012 67.6414 94.2066 67.5644C94.0518 67.4858 93.8954 67.3699 93.7779 67.2142C93.6603 67.0586 93.623 66.864 93.623 66.6298H94.0899C94.1677 67.0586 94.3623 67.2531 94.7903 67.2531L94.8696 67.2523V67.6811ZM97.9839 63.6704C98.2563 63.6704 98.4898 63.7093 98.6843 63.8649C98.8789 63.9816 99.0337 64.2151 99.1115 64.4882C99.2283 64.7995 99.3061 65.1505 99.3061 65.5777V65.7333C99.3061 66.0446 99.3061 66.2781 99.2283 66.5123C99.1901 66.7458 99.1115 66.9403 98.9956 67.1348C98.8789 67.2905 98.7614 67.4461 98.5668 67.5247C98.4104 67.6407 98.2158 67.6804 97.9832 67.6804V67.2516C98.2158 67.2127 98.3723 67.1348 98.489 66.9784C98.6439 66.7839 98.7217 66.5893 98.7614 66.3948C98.7614 66.1613 98.801 65.9271 98.801 65.6944C98.801 65.3046 98.7614 65.0322 98.6843 64.7995C98.6595 64.5915 98.5625 64.3988 98.4104 64.2548C98.2952 64.1762 98.138 64.0991 97.9832 64.0991L97.9839 63.6704ZM96.6603 65.345C96.6984 64.9948 96.777 64.6828 96.8548 64.4501C96.9326 64.2159 97.0875 64.0213 97.282 63.8657C97.4384 63.7497 97.6727 63.6711 97.9839 63.6711V64.0999C97.7878 64.0999 97.633 64.1777 97.5155 64.2937C97.3988 64.4501 97.2812 64.6057 97.2431 64.8392C97.2034 65.0727 97.1653 65.3061 97.1653 65.5396C97.1653 66.0454 97.2431 66.4742 97.3598 66.7854C97.4766 67.0967 97.6711 67.2531 97.9832 67.2531V67.6819C97.6719 67.6819 97.398 67.5652 97.2034 67.4088C96.9949 67.207 96.8469 66.9509 96.7762 66.6695C96.6968 66.3963 96.6595 66.0851 96.6198 65.7349C96.6595 65.696 96.6595 65.6189 96.6595 65.5403L96.6603 65.345ZM101.098 63.6704C101.331 63.6704 101.565 63.7093 101.76 63.8649C101.954 63.9816 102.111 64.2151 102.227 64.4882C102.345 64.7995 102.423 65.1505 102.423 65.5777V65.7333C102.423 66.0446 102.383 66.2781 102.345 66.5123C102.266 66.7458 102.188 66.9403 102.111 67.1348C101.994 67.2905 101.837 67.4461 101.682 67.5247C101.487 67.6407 101.293 67.6804 101.098 67.6804V67.2516C101.293 67.2127 101.487 67.1348 101.604 66.9784C101.721 66.7839 101.799 66.5893 101.837 66.3948C101.876 66.1613 101.916 65.9271 101.916 65.6944C101.916 65.3046 101.876 65.0322 101.799 64.7995C101.722 64.5264 101.643 64.3707 101.488 64.2548C101.371 64.1762 101.254 64.0991 101.099 64.0991V63.6704H101.098ZM99.7746 65.345C99.7746 64.9948 99.8524 64.6828 99.9294 64.4501C100.046 64.2159 100.164 64.0213 100.358 63.8657C100.553 63.7497 100.787 63.6711 101.098 63.6711V64.0999H101.059C100.864 64.0999 100.709 64.1777 100.592 64.2937C100.475 64.4501 100.397 64.6057 100.357 64.8392C100.28 65.0727 100.28 65.3061 100.28 65.5396C100.28 66.0454 100.318 66.4742 100.434 66.7854C100.551 67.0967 100.785 67.2531 101.058 67.2531H101.097V67.6819C100.786 67.6819 100.512 67.5652 100.318 67.4088C100.109 67.207 99.9612 66.9509 99.8905 66.6695C99.7738 66.3963 99.7341 66.0851 99.7341 65.7349V65.5403C99.7349 65.4617 99.7349 65.3839 99.7746 65.345ZM102.771 67.5636C102.811 67.1348 102.888 66.7847 103.083 66.5512C103.277 66.2781 103.55 66.0835 103.94 65.8508C104.329 65.6563 104.602 65.5007 104.718 65.3831C104.873 65.2664 104.913 65.0719 104.913 64.8384C104.913 64.605 104.873 64.4493 104.718 64.2929C104.602 64.177 104.407 64.0991 104.173 64.0991C103.629 64.0991 103.395 64.4096 103.357 65.0719H102.888C102.888 64.7995 102.928 64.5661 103.005 64.3715C103.122 64.1381 103.237 63.9824 103.432 63.8657C103.666 63.7101 103.9 63.6711 104.212 63.6711C104.446 63.6711 104.641 63.71 104.835 63.7879C104.99 63.8657 105.146 63.9824 105.262 64.177C105.379 64.3715 105.458 64.6057 105.458 64.8773C105.419 65.1886 105.342 65.4221 105.185 65.6174C104.99 65.7722 104.756 65.9676 104.406 66.1621C104.055 66.3177 103.823 66.4734 103.666 66.5901C103.511 66.7068 103.394 66.8633 103.317 67.0959H105.458V67.5636H102.771ZM63.9967 53.1602H64.7749C64.7749 53.315 64.8138 53.4325 64.8916 53.5096C64.9702 53.6263 65.0472 53.7041 65.2036 53.7438C65.3204 53.7827 65.4371 53.8216 65.5927 53.8216C66.1382 53.8216 66.4495 53.6271 66.4495 53.3158C66.4495 53.1999 66.4106 53.1213 66.3717 53.0435C66.2939 52.9649 66.2161 52.9267 66.1382 52.9267C66.0604 52.887 65.9437 52.8481 65.7492 52.81C65.5546 52.7322 65.4379 52.7322 65.3601 52.6933C65.1195 52.6572 64.8843 52.5919 64.6597 52.4987C64.4651 52.4209 64.3484 52.3042 64.2317 52.1493C64.115 51.9929 64.0371 51.7594 64.0371 51.4863C64.0371 51.2528 64.115 51.0194 64.2317 50.8638C64.3484 50.6684 64.5041 50.5136 64.7375 50.435C64.9717 50.3182 65.2441 50.2801 65.5554 50.2801C65.8285 50.2801 66.1001 50.3182 66.2954 50.3961C66.49 50.4747 66.6456 50.5914 66.8005 50.7073C66.9172 50.8241 66.9958 50.9797 67.0347 51.1361C67.1125 51.291 67.1125 51.4085 67.1514 51.5641H66.3336C66.2954 51.1742 66.0223 50.9797 65.5165 50.9797C65.3219 50.9797 65.1663 51.0194 65.0107 51.0964C64.8939 51.1743 64.8161 51.291 64.8161 51.4466C64.8161 51.6412 64.9321 51.7968 65.1274 51.8357C65.3219 51.9143 65.5165 51.9524 65.711 51.9913C65.8667 52.0303 66.0223 52.0699 66.1001 52.0699C66.3733 52.1485 66.6067 52.2256 66.7624 52.3034C66.918 52.382 67.0736 52.4979 67.1514 52.6536C67.2293 52.7703 67.2674 52.9649 67.2674 53.1991C67.2674 53.4715 67.1896 53.7041 67.0728 53.8613C66.9561 54.0559 66.7997 54.1718 66.6448 54.2893C66.4503 54.3679 66.2947 54.445 66.139 54.445C65.9834 54.4839 65.8277 54.4839 65.7499 54.4839C64.5803 54.4831 63.9967 54.0551 63.9967 53.1602ZM67.851 54.4053V50.3953H68.6681V54.4053H67.851ZM69.2525 53.1602H70.0307C70.0307 53.315 70.0696 53.4325 70.1475 53.5096C70.2245 53.6263 70.342 53.7041 70.4587 53.7438C70.5755 53.7827 70.6922 53.8216 70.8478 53.8216C71.3926 53.8216 71.7046 53.6271 71.7046 53.3158C71.7046 53.1999 71.6657 53.1213 71.6268 53.0435C71.549 52.9649 71.4712 52.9267 71.3933 52.9267C71.3155 52.887 71.1988 52.8481 71.0042 52.81C70.8097 52.7322 70.693 52.7322 70.6151 52.6933C70.3746 52.6572 70.1394 52.5919 69.9148 52.4987C69.7202 52.4209 69.6035 52.3042 69.4868 52.1493C69.3701 51.9929 69.2922 51.7594 69.2922 51.4863C69.2922 51.2528 69.3701 51.0194 69.4868 50.8638C69.6035 50.6684 69.7591 50.5136 69.9926 50.435C70.2261 50.3182 70.4992 50.2801 70.8105 50.2801C71.1217 50.2801 71.3552 50.3182 71.5505 50.3961C71.7451 50.4747 71.9396 50.5914 72.0563 50.7073C72.1731 50.8241 72.2509 50.9797 72.2898 51.1361C72.3676 51.291 72.4065 51.4085 72.4065 51.5641H71.5879C71.549 51.1742 71.2766 50.9797 70.77 50.9797C70.5755 50.9797 70.419 51.0194 70.2642 51.0964C70.1475 51.1743 70.0696 51.291 70.0696 51.4466C70.0696 51.6412 70.1864 51.7968 70.3809 51.8357C70.5755 51.9143 70.77 51.9524 70.9646 51.9913C71.1202 52.0303 71.2758 52.0699 71.3536 52.0699C71.6268 52.1485 71.8602 52.2256 72.0159 52.3034C72.2104 52.382 72.3272 52.4979 72.405 52.6536C72.4828 52.7703 72.5217 52.9649 72.5217 53.1991C72.5217 53.4715 72.4439 53.7041 72.3272 53.8613C72.2104 54.0559 72.0548 54.1718 71.8992 54.2893C71.7046 54.3679 71.549 54.445 71.3933 54.445C71.2377 54.4839 71.0821 54.4839 71.0042 54.4839C69.8362 54.4831 69.2525 54.0551 69.2525 53.1602ZM74.0018 54.4053V51.0957H72.7948V50.3953H76.0656V51.0957H74.8586V54.4053H74.0018ZM76.5714 54.4053V50.3953H79.4911V51.0957H77.3893V51.9524H79.3347V52.6528H77.3893V53.6652H79.6086V54.4053H76.5714ZM80.2312 54.4053V50.3953H81.4763L82.1767 53.5493L82.9175 50.3953H84.1237V54.4053H83.3455V51.0575H83.3066L82.5658 54.4053H81.7502L81.0094 51.0575V54.4053H80.2312ZM86.4979 50.3953H86.9664L88.406 54.4053H87.473L87.2388 53.5485H86.4987V52.8855H87.0045L86.4987 51.2894L86.4979 50.3953ZM84.5906 54.4053L85.9921 50.3953H86.4979V51.2902H86.4598L85.954 52.8863H86.4979V53.5493H85.7594L85.4855 54.4061L84.5906 54.4053ZM91.7935 50.3953H92.1048C92.2993 50.3953 92.4939 50.4342 92.6487 50.4739C92.7654 50.5517 92.9226 50.6287 92.9997 50.7463C93.1164 50.863 93.1942 51.0194 93.2339 51.1361C93.3117 51.291 93.3117 51.4855 93.3117 51.6412C93.3117 52.0303 93.2339 52.3423 93.0394 52.5758C92.8433 52.8092 92.5335 52.9259 92.0651 52.9259H91.7927V52.2637H91.8705C92.0651 52.2637 92.1818 52.2248 92.2993 52.1859C92.3771 52.1073 92.416 52.0295 92.4542 51.9517C92.4939 51.8738 92.4938 51.796 92.4938 51.6793C92.4938 51.484 92.4542 51.3291 92.3771 51.2505C92.2604 51.1346 92.0658 51.0949 91.7935 51.0949V50.3953ZM90.2752 54.4053V50.3953H91.7935V51.0949L91.0931 51.0957V52.2637H91.7927V52.9259H91.0931V54.4053H90.2752ZM95.7256 50.2793C95.998 50.2793 96.2315 50.3175 96.4657 50.3953C96.6603 50.4739 96.8929 50.5906 97.0493 50.7844C97.2439 50.9408 97.3606 51.1735 97.4781 51.4466C97.5933 51.7198 97.633 52.0303 97.633 52.4201C97.633 52.7314 97.5933 53.0435 97.5163 53.2769C97.3995 53.5501 97.282 53.7827 97.1272 53.9391C96.9326 54.1337 96.7381 54.2504 96.5038 54.3679C96.2712 54.4457 95.998 54.4839 95.7256 54.4839V53.7835C95.9599 53.7835 96.1926 53.7446 96.349 53.589C96.5038 53.4333 96.6213 53.2777 96.6984 53.0831C96.7752 52.8843 96.8148 52.673 96.8151 52.4598C96.8151 52.1096 96.7373 51.7595 96.5809 51.4474C96.4657 51.1743 96.1537 51.0194 95.7249 51.0194L95.7256 50.2793ZM93.8175 52.6139V52.4583C93.8175 52.0295 93.8557 51.6404 94.0121 51.3299C94.1288 51.0186 94.3615 50.7455 94.6354 50.5509C94.9078 50.3953 95.2969 50.2786 95.7249 50.2786V51.0178H95.6852C95.5303 51.0178 95.3739 51.0567 95.2183 51.1346C95.0634 51.2124 94.907 51.3291 94.8292 51.5237C94.7124 51.7182 94.6346 51.9906 94.6346 52.3018C94.6346 52.7306 94.7125 53.0808 94.8689 53.3532C95.0634 53.6263 95.3358 53.782 95.7249 53.782V54.4823C95.3358 54.4823 94.9848 54.4045 94.7125 54.2489C94.4401 54.0925 94.2066 53.8598 94.051 53.5485C93.8954 53.2761 93.8175 52.9649 93.8175 52.6139ZM99.9294 50.3953H100.319C100.592 50.3953 100.824 50.4342 101.02 50.5509C101.215 50.6669 101.33 50.7844 101.448 50.9789C101.525 51.1353 101.564 51.3299 101.564 51.5244C101.564 51.6404 101.564 51.7968 101.525 51.9135C101.447 52.0692 101.41 52.1478 101.292 52.2637C101.214 52.3423 101.097 52.4193 100.981 52.4583C101.175 52.5369 101.292 52.6528 101.37 52.8084C101.448 52.9252 101.448 53.1197 101.448 53.3532V53.7034C101.448 53.8979 101.487 54.0146 101.487 54.1321C101.525 54.21 101.565 54.2489 101.642 54.2878V54.4045H100.709C100.709 54.2878 100.669 54.2092 100.669 54.0924C100.631 53.9765 100.631 53.8598 100.631 53.743V53.3929C100.631 53.2364 100.592 53.1594 100.592 53.0816C100.552 53.003 100.512 52.926 100.397 52.8863C100.318 52.8474 100.203 52.8084 100.006 52.8084H99.9286V52.147H100.163C100.357 52.147 100.512 52.1073 100.631 51.9906C100.709 51.9128 100.747 51.7571 100.747 51.6015C100.747 51.4458 100.708 51.3291 100.631 51.2513C100.513 51.1353 100.397 51.0957 100.163 51.0957H99.9286L99.9294 50.3953ZM98.2952 54.4053V50.3953H99.9294L99.9286 51.0957H99.1115V52.1478H99.9294V52.8092H99.1115V54.4061L98.2952 54.4053ZM103.16 54.4053V51.0957H101.993V50.3953H105.225V51.0957H104.018V54.4053H103.16ZM105.691 53.0816V50.3953H106.549V53.0038C106.549 53.1991 106.587 53.354 106.665 53.4715C106.743 53.5882 106.82 53.666 106.938 53.7049C107.016 53.7835 107.132 53.7835 107.249 53.7835C107.793 53.7835 108.067 53.5501 108.067 53.0045V50.3961H108.923V53.0045C108.923 53.3158 108.885 53.5501 108.806 53.7446C108.691 53.9391 108.574 54.094 108.457 54.1726C108.3 54.2893 108.106 54.3679 107.911 54.4457C107.717 54.4847 107.522 54.4847 107.289 54.4847C107.016 54.4847 106.744 54.4457 106.51 54.3687C106.277 54.252 106.083 54.0948 105.926 53.9002C105.77 53.7057 105.691 53.3929 105.691 53.0816ZM109.545 52.3812C109.585 52.0699 109.623 51.7968 109.7 51.5633C109.78 51.3299 109.896 51.0957 110.051 50.9011C110.208 50.7066 110.402 50.5509 110.675 50.4334C110.909 50.3556 111.18 50.2786 111.531 50.2786H111.688C111.999 50.3167 112.233 50.3564 112.506 50.512C112.738 50.628 112.934 50.7844 113.05 51.0178C113.166 51.2124 113.244 51.4069 113.284 51.6404H112.428C112.428 51.5626 112.388 51.4458 112.311 51.368C112.236 51.2487 112.128 51.1538 112 51.0949C111.883 51.0171 111.726 50.9781 111.571 50.9781C111.416 50.9781 111.299 51.0178 111.182 51.0567C111.026 51.0957 110.91 51.1727 110.793 51.2513C110.676 51.368 110.598 51.5244 110.519 51.719C110.441 51.9135 110.404 52.1478 110.404 52.4193C110.404 52.7306 110.442 52.9641 110.559 53.1594C110.636 53.3532 110.753 53.5088 110.91 53.5874C111.025 53.7034 111.221 53.743 111.377 53.782H111.531C111.688 53.782 111.843 53.743 112 53.7034C112.117 53.6255 112.234 53.5485 112.349 53.3929C112.429 53.2761 112.506 53.1197 112.544 52.9252H111.611V52.2248H113.284V54.4053H112.738L112.661 53.8987C112.528 54.0393 112.385 54.1696 112.233 54.2885C112.077 54.3671 111.959 54.4053 111.805 54.4442C111.648 54.4831 111.493 54.4831 111.299 54.4831C111.064 54.4831 110.87 54.4442 110.636 54.3275C110.441 54.2496 110.247 54.0932 110.092 53.9384C109.935 53.7438 109.78 53.5096 109.701 53.2372C109.623 53.003 109.545 52.6917 109.545 52.3812ZM114.061 53.0816V50.3953H114.879V53.0038C114.879 53.1991 114.919 53.354 114.996 53.4715C115.073 53.589 115.152 53.666 115.268 53.7049C115.385 53.7835 115.502 53.7835 115.619 53.7835C116.165 53.7835 116.397 53.5501 116.397 53.0045V50.3961H117.255V53.0045C117.255 53.3158 117.215 53.5501 117.138 53.7446C117.061 53.9391 116.944 54.094 116.787 54.1726C116.632 54.2893 116.476 54.3679 116.281 54.4457C116.087 54.4847 115.854 54.4847 115.66 54.4847C115.348 54.4847 115.114 54.4457 114.88 54.3687C114.608 54.252 114.413 54.0948 114.257 53.9002C114.101 53.7041 114.061 53.3929 114.061 53.0816ZM118.072 54.4053V50.3953H121.03V51.0957H118.888V51.9524H120.875V52.6528H118.888V53.6652H121.109V54.4053H118.072ZM119.98 49.1883L120.603 50.0062H119.98L119.629 49.5385L119.28 50.0062H118.617L119.28 49.1883H119.98ZM121.614 53.1602H122.393C122.393 53.315 122.431 53.4325 122.51 53.5096C122.588 53.6263 122.705 53.7041 122.821 53.7438C122.936 53.7827 123.054 53.8216 123.21 53.8216C123.754 53.8216 124.066 53.6271 124.066 53.3158C124.064 53.2198 124.038 53.126 123.989 53.0435C123.911 52.9649 123.834 52.9267 123.754 52.9267C123.677 52.887 123.56 52.8481 123.365 52.81C123.171 52.7322 123.054 52.7322 122.976 52.6933C122.736 52.6572 122.5 52.5919 122.276 52.4987C122.081 52.4209 121.965 52.3042 121.847 52.1493C121.73 51.9929 121.652 51.7594 121.652 51.4863C121.652 51.2528 121.73 51.0194 121.847 50.8638C121.964 50.6684 122.119 50.5136 122.353 50.435C122.587 50.3182 122.859 50.2801 123.171 50.2801C123.443 50.2801 123.716 50.3182 123.911 50.3961C124.105 50.4739 124.26 50.5914 124.417 50.7073C124.533 50.8241 124.611 50.9797 124.649 51.1361C124.729 51.291 124.766 51.4085 124.766 51.5641H123.948C123.91 51.1742 123.637 50.9797 123.132 50.9797C122.936 50.9797 122.781 51.0194 122.624 51.0964C122.565 51.1335 122.516 51.185 122.482 51.2463C122.448 51.3076 122.43 51.3765 122.43 51.4466C122.43 51.6412 122.547 51.7968 122.741 51.8357C122.936 51.9143 123.132 51.9524 123.325 51.9913C123.481 52.0303 123.636 52.0699 123.715 52.0699C123.988 52.1485 124.221 52.2256 124.377 52.3034C124.533 52.382 124.688 52.4979 124.766 52.6536C124.844 52.7703 124.883 52.9649 124.883 53.1991C124.883 53.4715 124.805 53.7041 124.688 53.8613C124.571 54.0559 124.416 54.1718 124.259 54.2893C124.065 54.3679 123.91 54.445 123.754 54.445C123.599 54.4839 123.442 54.4839 123.364 54.4839C122.199 54.4831 121.614 54.0551 121.614 53.1602ZM65.9429 61.0238H65.8651V60.3226C66.1382 60.3226 66.3709 60.167 66.5273 59.9335C66.6441 59.6604 66.7219 59.311 66.7219 58.9211C66.7219 58.6876 66.683 58.4931 66.6441 58.2978C66.6052 58.1421 66.4876 57.9873 66.3709 57.8698C66.2542 57.753 66.0978 57.7141 65.8651 57.7141V57.0138H65.9818C66.332 57.0138 66.6441 57.0924 66.8767 57.2869C67.1102 57.4418 67.3047 57.676 67.4223 57.9491C67.5001 58.2215 67.5779 58.5328 67.5779 58.8433C67.5779 59.2331 67.539 59.5436 67.4223 59.8954C67.3055 60.2067 67.1499 60.479 66.8767 60.7133C66.6441 60.907 66.332 61.0238 65.9429 61.0238ZM65.8651 61.0238H64.1912V57.0138H65.8651V57.7141H65.0083V60.3226H65.8651V61.0238ZM69.7973 57.0138H70.265L71.7054 61.0238H70.7708L70.5373 60.2059H69.7973V59.5047H70.3039L69.7973 57.9087V57.0138ZM67.8899 61.0238L69.3304 57.0138H69.7973V57.9087L69.2915 59.5047H69.7973V60.2059H69.0572L68.7849 61.0238H67.8899ZM75.2858 56.8963H75.3247C75.7527 56.8963 76.1029 57.013 76.4142 57.2075C76.6881 57.4021 76.8827 57.6752 77.0375 57.9865C77.1542 58.297 77.2321 58.6487 77.2321 58.9989C77.1939 59.1935 77.1939 59.388 77.1939 59.5429C77.1588 59.7042 77.1063 59.8612 77.0375 60.0113C76.9994 60.1662 76.9208 60.2837 76.8033 60.4393L77.2321 60.8284L76.8033 61.2961L76.3364 60.8284C76.0157 61.0094 75.6533 61.1036 75.285 61.1016V60.4012C75.4796 60.4012 75.6352 60.3615 75.7527 60.2845L75.3636 59.9343L75.7916 59.4666L76.2196 59.8565C76.2593 59.7779 76.299 59.6222 76.3364 59.5055C76.3761 59.3896 76.3761 59.195 76.3761 58.9608C76.3761 58.7273 76.3364 58.5328 76.2593 58.2985C76.1815 58.104 76.0648 57.9491 75.9084 57.7935C75.7527 57.6768 75.5582 57.599 75.3247 57.599H75.2858V56.8963ZM73.3785 58.96C73.3785 58.7265 73.4174 58.4542 73.4952 58.2207C73.573 57.9873 73.6508 57.7927 73.8065 57.5585C73.9621 57.3639 74.1574 57.2083 74.4298 57.0916C74.6633 56.9748 74.9745 56.8963 75.2858 56.8963V57.5974C75.1302 57.5974 74.9745 57.6355 74.8189 57.7133C74.6625 57.7919 74.5076 57.9476 74.3901 58.1413C74.2734 58.3756 74.1956 58.6479 74.1956 58.9989C74.1956 59.0378 74.2345 59.1538 74.2345 59.2713C74.2345 59.6215 74.3512 59.8946 74.5458 60.0891C74.7403 60.2837 74.9738 60.4012 75.285 60.4012V61.1016C74.9349 61.1016 74.6625 61.023 74.3901 60.9062C74.1567 60.7895 73.9621 60.6331 73.8065 60.4386C73.6508 60.244 73.573 60.0106 73.4952 59.7763C73.4187 59.5109 73.3794 59.2362 73.3785 58.96ZM77.8562 59.7001V57.0138H78.7122V59.6222C78.7122 59.8176 78.7519 59.9724 78.8289 60.0899C78.9083 60.2067 78.9853 60.2845 79.1028 60.3234C79.1806 60.402 79.2974 60.402 79.4141 60.402C79.958 60.402 80.232 60.1677 80.232 59.623V57.0145H81.088V59.623C81.088 59.9343 81.0483 60.1677 80.9712 60.3623C80.8545 60.5576 80.7386 60.7133 80.6218 60.7911C80.4654 60.9078 80.2709 60.9856 80.0763 61.0642C79.8818 61.1031 79.6872 61.1031 79.453 61.1031C79.1806 61.1031 78.9091 61.0642 78.6748 60.9864C78.4406 60.8704 78.246 60.7529 78.0912 60.5187C77.9332 60.3226 77.8562 60.0113 77.8562 59.7001ZM83.5011 57.0138H83.968L85.4092 61.0238H84.4762L84.242 60.2059H83.5019V59.5047H84.0077L83.5019 57.9087L83.5011 57.0138ZM81.593 61.0238L82.9945 57.0138H83.5011L83.5004 57.9087H83.4622L82.9564 59.5047H83.5004V60.2059H82.7603L82.4879 61.0238H81.593ZM85.9143 61.0238V57.0138H86.7718V60.2837H88.7562V61.0238H85.9143ZM89.2628 61.0238V57.0138H90.1196V61.0238H89.2628ZM92.6487 61.0238H92.5335V60.3226C92.8433 60.3226 93.0394 60.167 93.195 59.9335C93.3498 59.6604 93.4292 59.311 93.4292 58.9211C93.3895 58.6876 93.3895 58.4931 93.3125 58.2978C93.2745 58.1277 93.1781 57.9762 93.0401 57.8698C92.9234 57.753 92.7662 57.7141 92.5343 57.7141V57.0138H92.6495C93.0401 57.0138 93.3498 57.0924 93.5841 57.2869C93.8183 57.4418 93.9732 57.676 94.0899 57.9491C94.2066 58.2215 94.2463 58.5328 94.2463 58.8433C94.2463 59.2331 94.2066 59.5436 94.0899 59.8954C94.0121 60.2067 93.8175 60.479 93.5841 60.7133C93.3498 60.907 93.0394 61.0238 92.6487 61.0238ZM92.5335 61.0238H90.8589V57.0138H92.5343V57.7141H91.676V60.3226H92.5335V61.0238ZM96.4657 57.0138H96.9715L98.373 61.0238H97.4781L97.2042 60.2059H96.4657V59.5047H96.9715L96.4657 57.9087V57.0138ZM94.5957 61.0238L95.9972 57.0138H96.4657V57.9087L95.9599 59.5047H96.4657V60.2059H95.7256L95.4533 61.0238H94.5957ZM100.669 61.0238H100.592V60.3226C100.864 60.3226 101.097 60.167 101.253 59.9335C101.37 59.6604 101.448 59.311 101.448 58.9211C101.448 58.6876 101.41 58.4931 101.37 58.2978C101.33 58.1421 101.215 57.9873 101.097 57.8698C100.98 57.7523 100.824 57.7141 100.592 57.7141V57.0138H100.708C101.058 57.0138 101.37 57.0924 101.603 57.2869C101.836 57.4418 102.031 57.676 102.147 57.9491C102.225 58.2215 102.304 58.5328 102.304 58.8433C102.304 59.2331 102.264 59.5436 102.147 59.8954C102.031 60.2067 101.875 60.479 101.603 60.7133C101.37 60.907 101.059 61.0238 100.669 61.0238ZM100.592 61.0238H98.917V57.0138H100.592V57.7141H99.7341V60.3226H100.592V61.0238ZM102.928 61.0238V57.0138H105.886V57.7141H103.746V58.5709H105.691V59.2713H103.746V60.2837H105.965V61.0238H102.928ZM32.5798 71.9238L31.8786 76.9851L28.1799 76.4404L28.2966 75.5447L30.9829 75.9338L31.1386 74.8443L28.6476 74.4941L28.7643 73.6366L31.2553 73.9875L31.4498 72.6639L28.6476 72.274L28.7643 71.3791L32.5798 71.9238ZM26.7784 70.8725L24.5987 75.5058L23.1972 74.8443L24.0539 70.7954L21.5233 74.0654L20.1218 73.4031L22.2626 68.7706L23.1972 69.1986L21.3669 73.0919H21.4058L24.0539 69.6274L24.9878 70.0562L24.0539 74.3385V74.2988L25.8446 70.4452L26.7784 70.8725ZM20.5109 67.4858L17.1234 71.3013L16.89 71.067V69.8997H16.9289L17.9016 68.8095L17.1616 68.1473C17.0837 68.0305 16.967 67.9924 16.8892 67.9138V66.9014C17.1226 66.9792 17.3172 67.0959 17.5903 67.3302L18.4852 68.1473L19.7311 66.7847L20.5109 67.4858ZM16.89 71.067L15.3717 69.7044C15.1959 69.5667 15.05 69.3946 14.9429 69.1986C14.8651 69.004 14.827 68.8095 14.827 68.615C14.827 68.3815 14.8651 68.2259 14.9429 68.0305C15.0208 67.836 15.1375 67.6414 15.2931 67.4858C15.6044 67.1356 15.9554 66.9022 16.3445 66.8633C16.5009 66.8243 16.6954 66.8243 16.89 66.9022V67.9146C16.8121 67.9146 16.7732 67.8757 16.7343 67.8757C16.6166 67.8442 16.4913 67.8581 16.3834 67.9146C16.3055 67.9932 16.1888 68.0702 16.111 68.1877C15.9165 68.3426 15.8379 68.5379 15.8379 68.6928C15.8379 68.8881 15.9943 69.0826 16.2666 69.3161L16.8892 69.9005V71.067H16.89ZM16.3055 63.2813L12.3345 65.6563V64.4493L13.3461 63.8649L12.6457 62.6968C12.5671 62.5412 12.4512 62.4245 12.3345 62.3467V61.5296C12.3734 61.5296 12.4123 61.5677 12.4901 61.6074C12.4115 61.3343 12.4512 61.1397 12.5679 60.9452C12.6846 60.7895 12.8792 60.6339 13.1134 60.4775L13.308 60.3607C13.3858 60.3218 13.4644 60.2829 13.5025 60.2448C13.6971 60.1281 13.8138 60.0502 13.9305 59.9335C14.0091 59.8557 14.0091 59.7779 14.0091 59.6604L14.1251 59.6215L14.7095 60.595C14.6309 60.7117 14.5539 60.7895 14.4363 60.8681C14.3196 60.9459 14.2029 61.0627 14.0862 61.1405C13.9305 61.2191 13.8138 61.2961 13.6971 61.3739C13.5414 61.4907 13.4644 61.5685 13.3858 61.6471C13.308 61.7257 13.2691 61.8027 13.308 61.9202C13.308 62.0759 13.3858 62.2315 13.5025 62.426L14.0862 63.3988L15.7989 62.3864L16.3055 63.2813ZM12.3345 65.6563L11.9461 65.8897L10.6225 63.6704C10.4452 63.4198 10.3498 63.1205 10.3493 62.8136C10.3493 62.5404 10.3882 62.3078 10.5049 62.0743C10.6217 61.8798 10.8162 61.7241 11.0108 61.5677C11.1664 61.4899 11.322 61.4128 11.5166 61.3732C11.6722 61.3342 11.8668 61.3342 12.0224 61.3732C12.1391 61.4128 12.217 61.4518 12.3337 61.5296V62.3467C12.2948 62.3467 12.2559 62.3078 12.178 62.3078C12.0224 62.2688 11.8668 62.3078 11.6722 62.4245C11.5166 62.5404 11.3999 62.6579 11.361 62.8136C11.2831 62.9692 11.322 63.1638 11.4777 63.3972L12.1788 64.5653L12.3345 64.4493V65.6563ZM13.3469 57.6752L8.44198 58.9997L7.46847 55.3788L8.32525 55.1064L9.02562 57.753L10.0777 57.4807L9.4544 55.0675L10.3104 54.8333L10.8948 57.2472L12.1796 56.8963L11.4403 54.171L12.3352 53.9384L13.3469 57.6752ZM10.5828 52.0303L10.6217 51.0186C10.8162 51.0186 10.9719 50.9789 11.0886 50.863C11.2053 50.7844 11.322 50.6677 11.361 50.5128C11.4396 50.3572 11.4777 50.2015 11.4777 50.007C11.4777 49.3058 11.2831 48.9167 10.894 48.8778C10.7384 48.8778 10.6217 48.9167 10.5431 48.9946C10.4653 49.0724 10.3874 49.1502 10.3485 49.228C10.3485 49.3447 10.3096 49.5393 10.2318 49.7735C10.154 50.0078 10.1151 50.1626 10.0762 50.2801C9.99757 50.6295 9.92053 50.9027 9.80303 51.1369C9.6863 51.3704 9.53066 51.5649 9.33534 51.6816C9.10188 51.8365 8.82952 51.8762 8.47933 51.8762C8.16806 51.8762 7.89569 51.7594 7.70115 51.603C7.46769 51.4474 7.27236 51.2139 7.15564 50.9416C7.03891 50.6677 7 50.3175 7 49.8895C7.03891 49.5393 7.07782 49.2272 7.19455 48.9549C7.31127 48.6825 7.428 48.488 7.62255 48.3323C7.77819 48.2156 7.93382 48.0989 8.12837 48.021C8.32292 47.9821 8.51746 47.9432 8.71201 47.9432L8.6731 48.9556C8.16728 48.9946 7.93305 49.3447 7.89491 50.007C7.89491 50.2404 7.93382 50.435 8.01164 50.6295C8.08946 50.7852 8.2451 50.8638 8.43964 50.9027C8.71201 50.9027 8.90733 50.7859 8.98437 50.5136C9.06297 50.2404 9.14001 50.0078 9.17892 49.7735C9.25674 49.579 9.29565 49.3844 9.33456 49.3058C9.45129 48.9167 9.5291 48.6444 9.64583 48.449C9.76256 48.2164 9.91898 48.06 10.0746 47.9821C10.2692 47.8654 10.4637 47.8265 10.7361 47.8654C11.1252 47.8654 11.3983 47.9432 11.6318 48.0989C11.8263 48.2545 12.0209 48.449 12.0995 48.6825C12.2154 48.916 12.294 49.1502 12.3329 49.3447C12.3329 49.5393 12.3718 49.7338 12.3718 49.8506C12.2963 51.2902 11.7119 52.0303 10.5828 52.0303ZM12.4131 46.2297L10.5446 44.7114V43.4266L11.168 43.9325L11.6357 42.6866L10.5454 42.6477V41.636L14.0496 41.6749L13.6605 42.7644L12.5703 42.7255L11.9088 44.4772L12.7656 45.1783L12.4131 46.2297ZM10.5439 44.7114L8.24743 42.8033L8.67543 41.636H10.5439V42.6477L9.53222 42.6088L10.5439 43.4266V44.7114ZM14.048 36.3023C13.7757 36.03 13.5422 35.7187 13.3858 35.4074C13.2302 35.1343 13.1134 34.8238 13.1134 34.5125C13.0745 34.2394 13.1134 33.9281 13.1912 33.6557C13.308 33.3437 13.4644 33.0721 13.6971 32.7989C13.9702 32.4877 14.2807 32.2931 14.6317 32.1367C14.9429 32.02 15.2939 31.9811 15.6052 32.02C15.9554 32.0589 16.2674 32.1756 16.5398 32.3702L15.7997 33.188C15.2939 32.9149 14.827 32.9546 14.4371 33.3826C14.1648 33.7328 14.048 34.083 14.1258 34.4339C14.2426 34.823 14.4768 35.2121 14.9048 35.6012C14.9048 35.6012 14.9437 35.6012 14.9437 35.6401C15.1772 35.8354 15.4114 35.9522 15.6441 36.0681C15.8775 36.1467 16.1507 36.1856 16.3841 36.1467C16.6176 36.1078 16.8121 36.03 17.0067 35.7965C17.4355 35.3288 17.4355 34.823 17.0456 34.3172L17.7857 33.5001C18.0191 33.8114 18.1748 34.1226 18.2526 34.4347C18.3312 34.746 18.3312 35.0962 18.2526 35.4463C18.1748 35.7576 17.9802 36.1086 17.7071 36.4198C17.4347 36.7311 17.0845 36.9646 16.6954 37.1202C16.3063 37.2369 15.9172 37.2759 15.4885 37.1591C15.0215 37.0424 14.5935 36.8082 14.1655 36.4191C14.1258 36.3802 14.1258 36.3412 14.048 36.3023ZM20.6276 33.3826L17.9024 29.0605L21.0945 27.0365L21.6003 27.8154L19.265 29.2559L19.8486 30.1905L21.9902 28.866L22.4571 29.6061L20.3552 30.9297L21.0556 32.0581L23.4306 30.5407L23.8975 31.3188L20.6276 33.3826ZM26.7395 24.9346L26.8562 24.8957C27.2072 24.7797 27.5184 24.7797 27.7908 24.8568C28.0632 24.8957 28.2577 25.0124 28.4523 25.207C28.6079 25.3626 28.7246 25.5961 28.8024 25.8303C28.8413 25.9859 28.8803 26.1805 28.8413 26.375C28.8413 26.5307 28.8024 26.6863 28.7246 26.8427C28.6468 26.9984 28.5301 27.1151 28.3744 27.2318C28.6476 27.2318 28.8421 27.3096 28.9978 27.4653C29.1145 27.6209 29.2312 27.8544 29.309 28.1267L29.3869 28.361C29.3869 28.4388 29.4258 28.5166 29.4258 28.5944C29.5036 28.789 29.5425 28.9446 29.6203 29.0613C29.6989 29.1391 29.7759 29.217 29.8545 29.1788L29.8935 29.3337L28.7643 29.645C28.6865 29.5671 28.6476 29.4504 28.5698 29.3337C28.5309 29.1788 28.4919 29.0613 28.4133 28.9057C28.3744 28.75 28.3355 28.5944 28.2966 28.4769C28.2188 28.322 28.1799 28.1656 28.141 28.0878C28.0645 28.0137 27.9706 27.9602 27.8678 27.9322C27.7511 27.8933 27.5566 27.9322 27.3231 28.01L26.7395 28.1656V27.2699L27.285 27.1143C27.5573 27.0365 27.713 26.9198 27.7908 26.7633C27.8686 26.6077 27.8686 26.4521 27.7908 26.2186C27.7519 26.063 27.6741 25.9073 27.5177 25.8295C27.362 25.7517 27.1675 25.7128 26.934 25.7906L26.7395 25.8684V24.9346ZM26.7395 30.0341L26.7784 30.2286H26.7395V30.0341ZM25.8049 30.501L24.3644 25.5961L26.7395 24.9346V25.8684L25.6103 26.1797L25.9994 27.5034L26.7395 27.2699V28.1656L26.2329 28.322L26.7387 30.0348V30.2294L25.8049 30.501ZM33.0856 29.1002L33.1634 24.8949H31.6062L31.6452 24L35.7719 24.0389V24.9346H34.2147L34.175 29.1391L33.0856 29.1002ZM37.4068 29.4504L38.536 24.4669L39.5865 24.7004L38.4574 29.6846L37.4068 29.4504ZM40.56 30.2286L42.623 25.5571L45.9716 27.0365L45.5825 27.8544L43.2463 26.8419L42.7787 27.8933L44.8424 28.7882L44.4922 29.6061L42.4285 28.7111L41.5717 30.6574L40.56 30.2286ZM45.426 32.7204L48.4236 28.5547L49.2804 29.178L46.2828 33.3429L45.426 32.7204ZM49.7862 32.7204C50.0975 32.448 50.4088 32.2534 50.7208 32.1367C51.0321 31.9811 51.3434 31.9033 51.6554 31.9033C51.9667 31.9033 52.2391 31.9811 52.5114 32.0978C52.8227 32.2145 53.0562 32.4091 53.2896 32.6814C53.6009 32.9927 53.7954 33.304 53.8733 33.655C53.99 33.9662 53.99 34.3164 53.9122 34.6277C53.8733 34.9786 53.7176 35.251 53.4842 35.5234L52.7449 34.7452C53.0562 34.2394 53.0562 33.7725 52.6671 33.3437C52.3558 33.0324 52.0048 32.9157 51.6157 32.9546C51.2266 33.0324 50.8375 33.2277 50.4088 33.6168V33.6557C50.1753 33.8503 50.0197 34.0837 49.903 34.3172C49.7862 34.5506 49.7084 34.7841 49.7473 35.0572C49.7473 35.2907 49.864 35.4852 50.0197 35.6798C50.4874 36.1475 50.9543 36.2253 51.5379 35.8743L52.2772 36.6525C51.9659 36.8479 51.6157 37.0035 51.3045 37.0416C50.9543 37.1194 50.6422 37.0805 50.292 36.9638C49.9808 36.8478 49.6695 36.6525 49.3971 36.3802C49.0859 36.03 48.8516 35.679 48.7738 35.2899C48.6571 34.9008 48.696 34.4728 48.8127 34.044C48.9683 33.655 49.2804 33.227 49.6695 32.8371L49.7862 32.7204ZM55.432 38.9108L57.3004 38.7552L57.807 39.8843L55.432 42.1426V40.7411L56.4833 39.8065L55.432 39.9232V38.9108ZM51.8889 39.2221L55.432 38.9108V39.9232L54.3806 40.0392L54.8865 41.2072L55.432 40.7411V42.1426L53.8748 43.6212L53.4079 42.5698L54.2258 41.8695L53.4468 40.1567L52.3566 40.2345L51.8889 39.2221ZM57.1058 45.1005L59.4412 44.8281L59.7524 47.0857C59.7914 47.5534 59.7524 47.9424 59.5579 48.2926C59.4023 48.6039 59.1299 48.8763 58.7789 49.0708C58.4677 49.2265 58.0786 49.3432 57.6895 49.421C57.4949 49.421 57.3004 49.4599 57.1058 49.4599V48.3697C57.2226 48.3697 57.3393 48.3697 57.4171 48.3308C57.7284 48.2919 58.0008 48.214 58.1953 48.1362C58.4288 48.0576 58.5844 47.9028 58.7011 47.7471C58.8568 47.5526 58.8957 47.3191 58.8568 47.0078L58.7011 45.9565L57.1058 46.1518V45.1005ZM54.6919 47.709L54.3806 45.4515L57.1058 45.1005V46.1518L55.3931 46.3853L55.5098 47.4366C55.5884 47.8257 55.7829 48.0981 56.1331 48.2148C56.4444 48.3315 56.7557 48.4086 57.1058 48.3697V49.4599C56.8335 49.4599 56.6 49.4218 56.3277 49.3829C55.8997 49.3051 55.5495 49.1105 55.2374 48.8381C54.9254 48.5658 54.7308 48.1759 54.6919 47.709ZM57.4949 52.7703L59.7532 54.0551L59.5587 55.301L57.4949 55.6512V54.599L58.5463 54.4831V54.4442L57.4949 53.8987V52.7703ZM55.0429 51.4077L57.4949 52.7703V53.8987L56.6381 53.4707L56.4055 54.7555L57.4949 54.599V55.6512L54.225 56.1959L54.4195 55.0278L55.5098 54.9111L55.8211 53.0435L54.8475 52.4979L55.0429 51.4077Z" fill="black"/>
</g>
<defs>
<clipPath id="clip0_34_793">
<rect width="150" height="100" fill="white"/>
</clipPath>
</defs>
</svg>
