<svg width="189" height="42" viewBox="0 0 189 42" fill="none" xmlns="http://www.w3.org/2000/svg">
<path d="M19.264 11.9C18.272 11.9 17.504 11.596 16.96 10.988C16.416 10.38 16.144 9.596 16.144 8.636C16.144 7.644 16.352 6.876 16.768 6.332C15.744 5.372 14.336 4.892 12.544 4.892C9.92 4.892 7.936 5.996 6.592 8.204C5.248 10.38 4.576 13.596 4.576 17.852C4.576 26.396 7.232 30.668 12.544 30.668C13.824 30.668 15.12 30.364 16.432 29.756C17.776 29.116 18.912 28.284 19.84 27.26C20.832 28.06 21.472 29.324 21.76 31.052C18.912 33.164 15.84 34.22 12.544 34.22C8.352 34.22 5.312 32.924 3.424 30.332C1.568 27.74 0.64 23.708 0.64 18.236C0.64 7.452 4.608 2.06 12.544 2.06C14.944 2.06 17.072 2.7 18.928 3.98C20.816 5.228 21.76 6.86 21.76 8.876C21.76 10.892 20.928 11.9 19.264 11.9ZM25.8944 22.124C25.8944 14.412 28.9024 10.556 34.9184 10.556C40.9344 10.556 43.9424 14.412 43.9424 22.124C43.9424 25.676 43.3824 28.492 42.2624 30.572C40.9824 33.004 38.5344 34.22 34.9184 34.22C31.3024 34.22 28.8544 33.004 27.5744 30.572C26.4544 28.492 25.8944 25.676 25.8944 22.124ZM29.8304 22.028C29.8304 27.852 31.5264 30.764 34.9184 30.764C38.3104 30.764 40.0064 27.852 40.0064 22.028C40.0064 16.172 38.3104 13.244 34.9184 13.244C31.5264 13.244 29.8304 16.172 29.8304 22.028ZM48.2538 22.124C48.2538 14.412 51.2618 10.556 57.2778 10.556C63.2938 10.556 66.3018 14.412 66.3018 22.124C66.3018 25.676 65.7418 28.492 64.6218 30.572C63.3418 33.004 60.8938 34.22 57.2778 34.22C53.6618 34.22 51.2138 33.004 49.9338 30.572C48.8138 28.492 48.2538 25.676 48.2538 22.124ZM52.1898 22.028C52.1898 27.852 53.8858 30.764 57.2778 30.764C60.6698 30.764 62.3658 27.852 62.3658 22.028C62.3658 16.172 60.6698 13.244 57.2778 13.244C53.8858 13.244 52.1898 16.172 52.1898 22.028ZM72.9171 22.364V15.788C72.9171 10.028 72.8371 6.108 72.6771 4.028L70.7571 3.884C70.6611 3.468 70.6131 2.988 70.6131 2.444C70.6131 1.868 70.6291 1.452 70.6611 1.196C73.5731 1.036 75.6531 0.891998 76.9011 0.763998L77.0931 1.004C76.6451 4.812 76.4211 8.908 76.4211 13.292V21.212C76.4211 25.148 76.5651 28.316 76.8531 30.716L78.6291 30.86C78.6931 31.372 78.7251 31.82 78.7251 32.204C78.7251 32.556 78.6771 33.004 78.5811 33.548C77.4611 33.516 76.1651 33.5 74.6931 33.5C73.2211 33.5 71.9411 33.516 70.8531 33.548C70.7571 33.068 70.7091 32.652 70.7091 32.3C70.7091 31.916 70.7411 31.436 70.8051 30.86L72.4851 30.716C72.7731 27.708 72.9171 24.924 72.9171 22.364ZM103.011 41.66C98.8189 41.66 95.6509 39.164 93.5069 34.172C88.6429 33.82 85.5389 31.388 84.1949 26.876C83.5229 24.572 83.1869 21.548 83.1869 17.804C83.1869 7.308 87.1069 2.06 94.9469 2.06C102.819 2.06 106.755 7.308 106.755 17.804C106.755 20.012 106.643 21.932 106.419 23.564C106.195 25.196 105.763 26.812 105.123 28.412C103.875 31.58 101.299 33.452 97.3949 34.028C98.6109 36.876 100.547 38.3 103.203 38.3C104.323 38.3 105.475 37.964 106.659 37.292C107.843 36.652 108.851 35.772 109.683 34.652C110.547 35.516 111.107 36.876 111.363 38.732C108.963 40.684 106.179 41.66 103.011 41.66ZM90.9149 29.612C92.0029 30.316 93.3469 30.668 94.9469 30.668C96.5789 30.668 97.9389 30.316 99.0269 29.612C100.147 28.908 100.979 27.9 101.523 26.588C102.483 24.316 102.963 21.404 102.963 17.852C102.963 9.212 100.291 4.892 94.9469 4.892C89.6349 4.892 86.9789 9.212 86.9789 17.852C86.9789 24.028 88.2909 27.948 90.9149 29.612ZM113.311 27.308L113.359 22.172C113.359 19.324 113.231 16.588 112.975 13.964L111.199 13.82C111.103 13.308 111.055 12.78 111.055 12.236C111.055 11.692 111.071 11.324 111.103 11.132C112.735 11.1 114.719 10.956 117.055 10.7L117.295 10.94C117.007 12.828 116.863 16.204 116.863 21.068V23.324C116.863 26.012 117.103 27.932 117.583 29.084C118.095 30.204 118.943 30.764 120.127 30.764C121.791 30.764 123.599 29.788 125.551 27.836C125.615 27.1 125.647 25.676 125.647 23.564V22.172C125.647 19.324 125.519 16.588 125.263 13.964L123.487 13.82C123.391 13.276 123.343 12.748 123.343 12.236C123.343 11.692 123.359 11.324 123.391 11.132C125.023 11.1 127.007 10.956 129.343 10.7L129.583 10.94C129.295 12.828 129.151 16.204 129.151 21.068V22.604C129.151 25.228 129.295 27.788 129.583 30.284L131.359 30.38C131.423 31.084 131.455 31.612 131.455 31.964C131.455 32.284 131.407 32.684 131.311 33.164C130.063 33.228 128.319 33.388 126.079 33.644C125.823 33.068 125.631 32.268 125.503 31.244C123.103 33.228 120.895 34.22 118.879 34.22C116.863 34.22 115.423 33.66 114.559 32.54C113.727 31.42 113.311 29.676 113.311 27.308ZM143.933 22.844C142.365 22.844 140.909 22.764 139.565 22.604C139.629 28.044 141.437 30.764 144.989 30.764C146.781 30.764 148.765 29.772 150.941 27.788C151.869 28.748 152.461 30.012 152.717 31.58C150.093 33.34 147.309 34.22 144.365 34.22C141.421 34.22 139.229 33.212 137.789 31.196C136.349 29.148 135.629 26.156 135.629 22.22C135.629 18.284 136.429 15.356 138.029 13.436C139.661 11.516 141.965 10.556 144.941 10.556C147.149 10.556 148.973 11.228 150.413 12.572C151.853 13.916 152.573 15.564 152.573 17.516C152.605 19.468 152.445 20.86 152.093 21.692C149.693 22.46 146.973 22.844 143.933 22.844ZM144.605 13.244C141.629 13.244 139.965 15.436 139.613 19.82C141.053 19.98 142.637 20.06 144.365 20.06C146.093 20.06 147.437 19.9 148.397 19.58C148.525 18.78 148.589 18.188 148.589 17.804C148.589 16.396 148.221 15.292 147.485 14.492C146.781 13.66 145.821 13.244 144.605 13.244ZM164.773 10.556C167.013 10.556 168.789 11.084 170.101 12.14C171.445 13.196 172.117 14.572 172.117 16.268C172.117 17.932 171.365 18.764 169.861 18.764C168.965 18.764 168.261 18.492 167.749 17.948C167.269 17.372 167.029 16.7 167.029 15.932C167.029 15.164 167.157 14.524 167.413 14.012C166.645 13.404 165.733 13.1 164.677 13.1C163.621 13.1 162.741 13.356 162.037 13.868C161.365 14.38 161.029 15.132 161.029 16.124C161.029 17.116 161.413 17.98 162.181 18.716C162.981 19.452 163.941 20.06 165.061 20.54C166.181 20.988 167.301 21.468 168.421 21.98C169.541 22.46 170.485 23.164 171.253 24.092C172.053 24.988 172.453 26.108 172.453 27.452C172.453 29.532 171.749 31.18 170.341 32.396C168.965 33.612 167.077 34.22 164.677 34.22C162.277 34.22 160.309 33.708 158.773 32.684C157.269 31.66 156.517 30.316 156.517 28.652V28.46C156.517 26.732 157.269 25.868 158.773 25.868C159.669 25.868 160.357 26.156 160.837 26.732C161.349 27.276 161.605 27.916 161.605 28.652C161.605 29.388 161.525 29.964 161.365 30.38C162.005 30.796 163.013 31.004 164.389 31.004C165.797 31.004 166.853 30.764 167.557 30.284C168.293 29.804 168.661 29.148 168.661 28.316C168.661 27.452 168.261 26.684 167.461 26.012C166.693 25.34 165.749 24.78 164.629 24.332C163.509 23.852 162.389 23.356 161.269 22.844C160.149 22.3 159.189 21.532 158.389 20.54C157.621 19.548 157.237 18.364 157.237 16.988C157.237 15.004 157.925 13.436 159.301 12.284C160.709 11.132 162.533 10.556 164.773 10.556ZM178.084 25.724C178.084 25.724 178.116 22.156 178.18 15.02C178.18 14.54 178.164 14.172 178.132 13.916C176.788 13.916 175.828 13.932 175.252 13.964C175.06 13.452 174.964 12.956 174.964 12.476C174.964 11.964 174.996 11.58 175.06 11.324H177.988L177.748 7.772C178.548 7.516 179.38 7.388 180.244 7.388C181.14 7.388 181.876 7.452 182.452 7.58L182.02 11.276C183.78 11.244 185.556 11.148 187.348 10.988C187.54 11.404 187.636 11.868 187.636 12.38C187.636 12.86 187.572 13.452 187.444 14.156C186.26 14.092 184.388 14.028 181.828 13.964C181.764 14.604 181.732 15.548 181.732 16.796V26.54C181.732 27.372 181.764 28.06 181.828 28.604C181.924 29.116 182.132 29.596 182.452 30.044C182.804 30.46 183.3 30.668 183.94 30.668C185.348 30.668 186.692 30.172 187.972 29.18C188.644 30.14 188.98 31.436 188.98 33.068C187.22 33.836 185.684 34.22 184.372 34.22C183.092 34.22 182.068 34.044 181.3 33.692C180.532 33.372 179.94 32.988 179.524 32.54C179.108 32.06 178.788 31.404 178.564 30.572C178.244 29.388 178.084 27.772 178.084 25.724Z" fill="white"/>
</svg>
