<svg width="25" height="24" viewBox="0 0 25 24" fill="none" xmlns="http://www.w3.org/2000/svg">
<path d="M15.3 9C15.3 10.3807 14.1807 11.5 12.8 11.5C11.4193 11.5 10.3 10.3807 10.3 9C10.3 7.61929 11.4193 6.5 12.8 6.5C14.1807 6.5 15.3 7.61929 15.3 9Z" stroke="#0B5D1E" stroke-width="1.5"/>
<path d="M19.0222 17C20.4167 18.9885 21.0838 20.0475 20.6865 20.8999C20.6466 20.9854 20.5999 21.0679 20.5469 21.1467C19.9724 22 18.4875 22 15.5178 22H10.0823C7.11256 22 5.6277 22 5.05316 21.1467C5.0001 21.0679 4.95344 20.9854 4.9136 20.8999C4.51624 20.0475 5.18331 18.9885 6.57783 17" stroke="#0B5D1E" stroke-width="1.5" stroke-linecap="round" stroke-linejoin="round"/>
<path d="M14.0574 17.4936C13.7201 17.8184 13.2693 18 12.8002 18C12.331 18 11.8802 17.8184 11.5429 17.4936C8.45435 14.5008 4.31524 11.1575 6.33376 6.30373C7.42515 3.67932 10.045 2 12.8002 2C15.5554 2 18.1752 3.67933 19.2666 6.30373C21.2826 11.1514 17.1536 14.5111 14.0574 17.4936Z" stroke="#0B5D1E" stroke-width="1.5"/>
</svg>
